<svg width="17" height="17" viewBox="0 0 17 17" fill="none" xmlns="http://www.w3.org/2000/svg">
<path d="M16.0964 9.6026C16.9438 9.11147 16.943 7.88733 16.0953 7.39649V7.39649C15.4871 7.04431 15.2783 6.26611 15.6288 5.65696V5.65696C16.1175 4.8077 15.5051 3.74744 14.5253 3.7461V3.7461C13.8228 3.74515 13.2534 3.17581 13.2524 2.47332V2.47332C13.2511 1.4937 12.1909 0.881731 11.3421 1.37069V1.37069C10.7332 1.72138 9.95533 1.51297 9.60322 0.904957V0.904957C9.1122 0.0571073 7.88788 0.0569589 7.39687 0.904809V0.904809C7.04466 1.51298 6.26643 1.7213 5.65738 1.37061V1.37061C4.80831 0.881739 3.74774 1.4935 3.7464 2.47324V2.47324C3.74544 3.17583 3.17601 3.74515 2.47343 3.7461V3.7461C1.49358 3.74744 0.881456 4.80798 1.37017 5.65725V5.65725C1.72059 6.26618 1.51234 7.04404 0.904419 7.3962V7.3962C0.0566791 7.88729 0.057066 9.11151 0.90489 9.60245V9.60245C1.51309 9.95463 1.72174 10.7327 1.3712 11.3418V11.3418C0.88248 12.1911 1.4946 13.2514 2.47444 13.2527V13.2527C3.17718 13.2537 3.74663 13.8231 3.74759 14.5258V14.5258C3.74893 15.5056 4.80936 16.1176 5.65861 15.6289V15.6289C6.2677 15.2785 7.04574 15.4868 7.39791 16.0949V16.0949C7.88901 16.9429 9.11336 16.9429 9.60446 16.0949V16.0949C9.95664 15.4868 10.7347 15.2785 11.3438 15.6289V15.6289C12.193 16.1176 13.2534 15.5056 13.2548 14.5258V14.5258C13.2557 13.8231 13.8252 13.2537 14.5279 13.2527V13.2527C15.5078 13.2514 16.1196 12.1906 15.6309 11.3414V11.3414C15.2806 10.7326 15.4886 9.95478 16.0964 9.6026V9.6026ZM8.55928 13.3007C5.94035 13.3007 3.81699 11.1774 3.81699 8.55868C3.81699 5.93991 5.94035 3.81668 8.55928 3.81668C11.1782 3.81668 13.3016 5.93991 13.3016 8.55868C13.3016 11.1774 11.1782 13.3007 8.55928 13.3007Z" fill="white"/>
</svg>
